sit_stand0002_filtered
version=1
nRows=42
nColumns=19
inDegrees=no
endheader
time	ground_force_r_vx	ground_force_r_vy	ground_force_r_vz	ground_force_r_px	ground_force_r_py	ground_force_r_pz	ground_torque_r_x	ground_torque_r_y	ground_torque_r_z	ground_force_l_vx	ground_force_l_vy	ground_force_l_vz	ground_force_l_px	ground_force_l_py	ground_force_l_pz	ground_torque_l_x	ground_torque_l_y	ground_torque_l_z
0.0	5.859292645569621	57.081048	-1.0742850717299564	0.21032980456962036	0.0	0.0988714992700439	-6.868485	-0.123876	-1.958325	4.10039664556962	66.834502	-5.497018071729956	0.18804726856962029	0.0	-0.25831696972995655	8.344792	-1.18881	0.462735
0.0016666666666667052	6.47052664556962	56.4716	-1.0792080717299561	0.20585100456962024	0.0	0.08788116327004403	-7.415298	-0.373412	-1.866335	4.09952064556962	65.003448	-5.498527071729956	0.18566403656962027	0.0	-0.25477800272995665	8.34603	-1.310672	0.706977
0.0033333333333334103	6.171023645569621	54.640567	-0.7683320717299562	0.21013567056962035	0.0	0.08676421627004327	-7.235089	-0.126969	-2.232441	5.011896645569621	65.613623	-5.813342071729957	0.18401064356962038	0.0	-0.25035592772995585	8.71369	-1.428871	0.463109
0.0050000000000001155	5.55302764556962	55.859427	-1.3746610717299563	0.2101668375696203	0.0	0.08314034927004421	-7.600326	-0.131457	-1.591032	5.01131264556962	64.39292	-5.814348071729956	0.18747975256962035	0.0	-0.23934942272995574	9.260204	-1.178548	0.585235
0.006666666666666599	5.860011645569621	54.639178	-1.3757280717299563	0.21459067656962028	0.0	0.08340486727004404	-7.419569	0.114428	-1.590927	4.70025664556962	66.224623	-6.419766071729956	0.1897269505696203	0.0	-0.2543773957299562	8.526473	-1.064614	0.58479
0.008333333333333304	5.24201564556962	55.858038	-1.9820570717299564	0.20796739856962032	0.0	0.07991730627004401	-7.782662	-0.254859	-1.865607	4.09952064556962	65.003448	-5.498527071729956	0.18754180056962033	0.0	-0.25479884672995645	8.344821	-1.18886	0.4017
0.010000000000000009	5.554131645569621	57.080597	-1.0713590717299564	0.20597663156962032	0.0	0.0892871432700435	-7.414888	-0.37383	-1.591678	4.706739645569621	65.613766	-5.809955071729957	0.18591667856962035	0.0	-0.24758629672995625	8.895371	-1.304675	0.585164
0.011666666666666714	5.87483164556962	56.473043	0.4524519282700439	0.21450165456962034	0.0	0.08446900627004439	-7.602803	0.112812	-1.682209	4.10349164556962	66.223898	-5.192364071729957	0.18978624856962034	0.0	-0.2516715147299564	8.709538	-1.062532	0.645911
0.01333333333333342	6.470718645569621	58.303119	-0.7768350717299564	0.21238277656962035	0.0	0.09507655127004355	-7.236122	-0.005044	-2.140701	4.39112864556962	65.004317	-6.722541071729957	0.19328590256962042	0.0	-0.24353501472995642	9.073075	-0.814442	0.52381
0.015000000000000124	5.250984645569621	57.690965	-0.7642010717299565	0.20818214556962034	0.0	0.09062659727004352	-7.416605	-0.251208	-1.9577	5.01131264556962	64.39292	-5.814348071729956	0.18362550956962043	0.0	-0.24499402372995682	8.896696	-1.426688	0.646301
0.016666666666666607	5.859292645569621	57.081048	-1.0742850717299564	0.20171253956962032	0.0	0.09253673327004375	-7.229724	-0.615925	-1.775429	4.706447645569621	65.003415	-5.810458071729956	0.1875434195696204	0.0	-0.2519669667299569	8.527857	-1.186727	0.523856
0.018333333333333313	5.56362664556962	54.640134	-0.4573180717299561	0.20579831156962036	0.0	0.09684438727004352	-6.682501	-0.366807	-1.59276	5.012188645569621	66.223974	-5.812840071729957	0.19711528756962038	0.0	-0.25172360372995595	8.704264	-0.574532	0.340331
0.020000000000000018	6.47839264556962	57.083357	-0.16465307172995658	0.21029536156962036	0.0	0.09882089127004434	-6.868212	-0.124155	-1.77522	4.41203564556962	66.223502	-4.8905950717299564	0.18433406456962032	0.0	-0.2433304277299566	9.262943	-1.422723	0.524402
0.021666666666666723	5.848693645569621	58.300341	-1.9916280717299562	0.21651459756962044	0.0	0.0856789182700437	-7.786797	0.232842	-1.498646	4.702767645569621	64.393316	-6.116117071729956	0.18553628356962037	0.0	-0.24500018572995685	8.895371	-1.304675	0.585164
0.023333333333333428	6.166276645569621	55.860798	-1.0753520717299563	0.21003767956962027	0.0	0.07328773127004418	-8.150163	-0.136166	-1.95643	4.40438564556962	64.392954	-5.502416071729956	0.18548787556962032	0.0	-0.25071712772995625	8.529182	-1.30874	0.584992
0.02499999999999991	5.55120564556962	57.080128	-1.3765200717299564	0.20802345356962026	0.0	0.07965839527004359	-7.965486	-0.256893	-1.682231	4.70025664556962	66.224623	-6.419766071729956	0.1823236585696203	0.0	-0.2570602857299562	8.348856	-1.554998	0.463039
0.026666666666666616	4.94563064556962	55.858994	-1.0636470717299562	0.2145413165696204	0.0	0.0798022152700435	-7.786173	0.111335	-1.865044	4.7036436455696204	66.22437	-6.114609071729957	0.18622461056962025	0.0	-0.23776275172995565	9.627806	-1.296646	0.463438
0.02833333333333332	5.24786664556962	55.858976	-1.3717350717299563	0.2145869975696203	0.0	0.0863767982700443	-7.420389	0.115265	-2.140242	4.10290764556962	65.003195	-5.193370071729956	0.18763542556962032	0.0	-0.24636381872995639	8.894016	-1.182612	0.585063
0.030000000000000027	6.16315864556962	54.02881	-1.6828860717299565	0.2123329705696203	0.0	0.08190813627004356	-7.418126	-0.007915	-1.40801	5.005997645569621	67.445182	-6.422148071729956	0.1828581935696203	0.0	-0.2484846387299564	9.081262	-1.546919	0.402347
0.03166666666666673	6.15860264556962	57.080561	-1.6875340717299565	0.21452950756962041	0.0	0.0924477852700436	-7.237019	0.116742	-1.957408	5.008800645569621	66.224227	-6.117997071729956	0.18418270456962038	0.0	-0.2543304867299563	8.530596	-1.430903	0.463023
0.03333333333333344	6.156395645569621	54.638222	-2.2941390717299566	0.2145413165696204	0.0	0.08010644927004318	-7.603076	0.113091	-1.865314	3.7839096455696204	64.393999	-6.4111130717299565	0.18558158856962026	0.0	-0.24498564072995688	8.895341	-1.304625	0.646199
0.03499999999999992	5.84082864556962	57.688583	-2.9061830717299566	0.2039779395696203	0.0	0.09713400127004412	-7.047934	-0.491965	-1.867064	5.3204406455696205	65.613227	-5.5115730717299565	0.18963854756962029	0.0	-0.24485159072995621	9.075784	-1.058568	0.524013
0.036666666666666625	6.4745556455696205	57.693238	-0.470744071729956	0.20590718856962031	0.0	0.08110737727004391	-7.964999	-0.378261	-2.140181	5.008800645569621	66.224227	-6.117997071729956	0.18596448056962034	0.0	-0.2598803977299564	8.163111	-1.313006	0.34068
0.03833333333333333	6.454076645569621	57.689954	-2.6068740717299566	0.20179744556962032	0.0	0.09396336627004409	-7.229724	-0.615925	-1.775429	3.47565764556962	65.004746	-6.712380071729957	0.1932368255696204	0.0	-0.25198544372995624	8.523734	-0.820439	0.645623
0.040000000000000036	6.76691164556962	56.470643	-1.9976180717299563	0.2058965195696203	0.0	0.09441899227004402	-7.048421	-0.370597	-1.409114	4.71573264556962	63.171602	-4.896495071729956	0.1792794285696203	0.0	-0.24812303972995675	8.533247	-1.674928	0.585296
0.04166666666666674	5.872624645569621	54.030704	-0.15415307172995618	0.20553820856962035	0.0	0.07849361827004309	-7.598122	-0.375447	-1.68296	4.713221645569621	65.002909	-5.200144071729956	0.18948337956962036	0.0	-0.24638433072995625	8.892749	-1.0607	0.401856
0.043333333333333446	6.15860264556962	57.080561	-1.6875340717299565	0.20808193856962032	0.0	0.08930091327004419	-7.415922	-0.251905	-1.499938	4.09952064556962	65.003448	-5.498527071729956	0.18566403656962027	0.0	-0.25477800272995665	8.346117	-1.310822	0.523871
0.04499999999999993	5.56765564556962	55.861773	0.15114592827004358	0.2057631955696203	0.0	0.07981698927004377	-7.781492	-0.376923	-1.865794	4.40216664556962	66.834612	-5.8055630717299564	0.18444110856962026	0.0	-0.25278281172995687	8.71369	-1.428871	0.463109
0.046666666666666634	6.15860264556962	57.080561	-1.6875340717299565	0.21019011656962028	0.0	0.08607199827004397	-7.600599	-0.131178	-1.774137	4.09303864556962	65.614305	-6.108338071729957	0.18774472456962032	0.0	-0.2531733957299567	8.527944	-1.186878	0.340751
0.04833333333333334	6.16737964556962	57.081968	-0.7720500717299563	0.21235932356962028	0.0	0.08920895827004394	-7.418809	-0.007218	-1.865772	4.701891645569621	62.560355	-6.117627071729956	0.18288840556962038	0.0	-0.24970897572995643	8.347472	-1.432885	0.523973
0.050000000000000044	5.85435264556962	56.469759	-1.6836780717299562	0.21230965356962028	0.0	0.08136677827004313	-7.784593	-0.011148	-1.590574	4.40526164556962	66.224007	-5.500908071729956	0.18242986356962032	0.0	-0.2488101607299562	8.898022	-1.5487	0.707437
0.05166666666666675	6.456809645569621	55.858904	-2.604085071729956	0.2057126465696204	0.0	0.07997362927004392	-7.781355	-0.377063	-1.774242	5.019254645569621	66.833819	-5.202023071729957	0.18803402556962034	0.0	-0.2555915057299556	8.527944	-1.186878	0.340751
0.053333333333333455	5.863129645569621	56.471167	-0.7681940717299565	0.2122780685696204	0.0	0.07807220327004316	-7.967963	-0.012625	-1.773408	5.3201486455696205	65.002875	-5.512076071729957	0.18369539056962036	0.0	-0.2575731427299566	8.164436	-1.435018	0.401816
0.05499999999999994	5.2401936455696205	57.078738	-1.9839170717299566	0.2079792385696203	0.0	0.07327537827004438	-8.331406	-0.260684	-1.498585	4.09274664556962	65.003954	-6.108840071729956	0.18763592256962036	0.0	-0.2463191037299568	8.894103	-1.182763	0.401958
0.05666666666666664	5.546265645569621	56.468839	-1.9859130717299562	0.2036476465696203	0.0	0.07822361527004329	-7.963419	-0.500744	-1.865711	4.40070664556962	63.782855	-5.808076071729957	0.18344186356962033	0.0	-0.24367172172995666	8.896725	-1.426738	0.585265
0.05833333333333335	7.08670064556962	56.47344	-0.4747380717299565	0.2122714415696204	0.0	0.08454188127004425	-7.601359	-0.009532	-1.499292	4.41174364556962	65.61315	-4.8910970717299564	0.18400871056962032	0.0	-0.25319099772995646	8.530508	-1.430752	0.646129
0.06000000000000005	6.765089645569621	57.691344	-1.9994780717299565	0.20803793156962036	0.0	0.0843456882700444	-7.782389	-0.255138	-1.682501	4.39819464556962	65.614162	-6.111725071729956	0.18772995856962027	0.0	-0.2531732317299564	8.527798	-1.186627	0.645926
0.06166666666666676	6.17193464556962	54.030217	-0.7674020717299563	0.21004017656962037	0.0	0.07848632427004354	-7.600736	-0.131039	-1.86569	3.7850776455696202	66.835404	-6.409102071729956	0.1880622475696203	0.0	-0.25827364172995626	8.344762	-1.18876	0.52377
0.06333333333333324	6.45700264556962	57.690424	-2.3017130717299565	0.20590815456962042	0.0	0.08120816527004404	-7.964452	-0.378819	-1.773971	4.4040936455696205	63.782602	-5.5029190717299565	0.18529167056962037	0.0	-0.24944925272995633	8.529299	-1.308941	0.340852
0.06499999999999995	5.552116645569621	56.469777	-1.3755900717299565	0.2058715615696204	0.0	0.08465474027004394	-7.598395	-0.375168	-1.866065	4.706447645569621	65.003415	-5.810458071729956	0.1856656565696203	0.0	-0.2519461237299563	8.52927	-1.308891	0.401887
0.06666666666666665	6.151840645569621	57.689972	-2.2987860717299564	0.2123042945696203	0.0	0.08432157627004422	-7.784729	-0.011009	-1.682126	5.008508645569621	65.613876	-6.118499071729956	0.18584013056962034	0.0	-0.2531522547299563	8.529153	-1.30869	0.646028
0.06833333333333336	6.145796645569621	55.857515	-3.2114820717299564	0.20579319056962042	0.0	0.0865652282700431	-7.414478	-0.374248	-1.31702	3.7872976455696206	64.393746	-6.105956071729956	0.1854867415696203	0.0	-0.25353071172995634	8.346117	-1.310822	0.523871
